<svg xmlns="http://www.w3.org/2000/svg" width="638" height="556" viewBox="0 0 638 556">
  <!-- Белая квадратная подложка -->
  <rect width="100%" height="100%" fill="white" />
  
  <!--
    PureAura Logo Mark — Black "A"
  -->
  <g fill="black" fill-rule="evenodd">
    <!-- Left leg + swoosh -->
    <path d="M 108.00 507.24 C135.22,499.75 150.82,487.95 166.51,463.00 C170.77,456.23 180.29,436.65 185.54,423.86 C188.11,417.61 192.89,406.93 196.16,400.12 C199.43,393.32 203.92,383.64 206.14,378.62 C208.35,373.61 211.52,366.58 213.19,363.00 C214.86,359.42 218.69,350.88 221.71,344.00 C224.73,337.12 230.30,325.07 234.10,317.21 C237.89,309.35 241.00,302.71 241.00,302.45 C241.00,302.19 243.48,296.76 246.50,290.37 C249.52,283.98 252.00,278.63 252.00,278.47 C252.00,278.32 253.80,274.34 256.00,269.62 C258.20,264.90 260.00,260.84 260.00,260.58 C260.00,260.33 261.97,255.93 264.37,250.81 C266.78,245.69 270.21,238.35 272.00,234.50 C273.80,230.65 276.94,223.90 279.00,219.50 C281.05,215.10 283.74,209.25 284.97,206.50 C286.21,203.75 288.52,198.66 290.11,195.18 C291.70,191.70 293.00,188.70 293.00,188.50 C293.00,188.09 297.90,177.10 301.47,169.50 C308.25,155.07 314.02,142.27 326.53,114.00 C331.27,103.28 337.29,90.45 339.91,85.50 C345.44,75.05 357.97,56.64 365.09,48.50 C367.80,45.39 369.75,42.40 369.41,41.86 C368.53,40.43 299.50,41.87 290.50,43.50 C263.85,48.33 246.67,58.70 227.58,81.50 C213.86,97.89 205.69,111.06 197.44,130.05 C194.95,135.80 192.26,141.85 191.46,143.50 C177.47,172.55 168.22,192.11 164.27,201.00 C161.68,206.85 160.60,209.25 156.69,218.00 C155.33,221.02 151.19,229.80 147.49,237.50 C136.61,260.10 132.11,269.76 126.45,282.64 C123.52,289.32 117.55,302.15 113.19,311.14 C108.83,320.14 104.13,329.98 102.74,333.00 C101.36,336.02 98.83,341.55 97.12,345.28 C95.40,349.00 94.00,352.21 94.00,352.41 C94.00,352.92 86.05,369.85 77.75,387.00 C66.38,410.51 61.47,421.10 58.72,428.02 C55.48,436.14 50.97,445.86 38.17,472.21 C24.93,499.47 21.73,506.86 22.43,508.67 C22.93,509.97 28.01,510.11 61.75,509.73 C97.01,509.34 101.18,509.12 108.00,507.24 Z"/>

    <!-- Right leg -->
    <path d="M 583.00 507.99 C583.00,504.66 574.60,485.67 557.78,451.00 C552.31,439.73 544.33,422.62 540.04,413.00 C529.46,389.25 527.39,384.80 517.00,363.50 C512.05,353.35 508.00,344.84 508.00,344.58 C508.00,343.90 497.79,321.62 490.78,307.00 C477.06,278.39 471.97,267.41 468.99,260.00 C468.00,257.52 464.63,250.10 461.50,243.50 C450.15,219.56 442.40,202.82 441.84,201.09 C441.38,199.65 437.00,206.05 437.00,208.15 C437.00,209.80 429.18,224.39 425.61,229.41 C417.48,240.86 402.51,254.44 388.79,262.83 C381.13,267.51 360.18,278.38 352.00,281.91 C348.98,283.21 344.02,285.39 341.00,286.75 C337.98,288.10 326.95,292.79 316.50,297.17 C283.22,311.10 269.18,319.61 254.11,335.00 C245.50,343.79 236.86,358.50 227.10,381.00 C222.28,392.13 219.07,399.25 211.87,414.89 C209.74,419.50 208.00,424.12 208.00,425.14 C208.00,427.42 211.61,427.66 214.58,425.58 C216.68,424.11 235.84,414.39 242.00,411.68 C260.22,403.64 284.93,395.12 313.46,387.04 C336.88,380.40 342.33,379.16 355.34,377.55 C385.82,373.78 400.25,383.15 416.04,417.00 C423.23,432.41 436.84,458.85 442.29,468.00 C449.67,480.39 461.85,492.16 473.61,498.26 C494.12,508.90 499.77,509.81 546.25,509.92 C582.42,510.00 583.00,509.97 583.00,507.99 Z"/>

    <!-- Inner leaf / swoosh element -->
    <path d="M 362.48 255.12 C395.84,238.04 413.65,220.51 421.66,196.88 C424.10,189.68 424.50,186.95 424.50,177.50 C424.50,162.99 423.26,158.87 410.96,132.50 C408.65,127.55 403.51,115.85 399.53,106.50 C379.34,59.06 380.82,62.13 378.57,62.94 C376.68,63.62 367.30,75.74 364.98,80.50 C364.44,81.60 363.44,83.38 362.75,84.46 C356.27,94.63 347.77,111.61 340.60,128.73 C338.03,134.87 334.79,142.22 330.80,151.00 C327.23,158.85 322.31,175.21 320.95,183.75 C318.92,196.50 321.60,208.81 330.80,229.00 C333.51,234.96 338.17,246.07 341.07,253.50 C343.96,260.90 344.74,262.00 347.14,262.00 C348.18,262.00 355.09,258.90 362.48,255.12 Z"/>
  </g>
</svg>
